{"title":"Far.from.the.Madding.Crowd.2015.BRRip.480p.x264.AAC-VYTO [P2PDL]","uid":12166985,"size":427547066,"categoryP":"video","categoryS":"movies","magnet":"?xt=urn:btih:d5751935be45bbc95494b8f5fb93da134f2c032c&amp;dn=Far.from.the.Madding.Crowd.2015.BRRip.480p.x264.AAC-VYTO+%5BP2PDL%5D&amp;tr=udp%3A%2F%2Ftracker.openbittorrent.com%3A80&amp;tr=udp%3A%2F%2Fopen.demonii.com%3A1337&amp;tr=udp%3A%2F%2Ftracker.coppersurfer.tk%3A6969&amp;tr=udp%3A%2F%2Fexodus.desync.com%3A6969","seeders":1,"leechers":5,"uploader":"ValidusVyto","files":7,"time":1438063904,"description":"____    ____ ____    ____ .___________.  ______   \n     /   /      /   / |           | /  __    \n    /   /      /   /  `---|  |----`|  |  |  | \n        /     _    _/       |  |     |  |  |  | \n       /        |  |         |  |     |  `--'  | \n    __/         |__|         |__|      ______/  \n                                                  \nPresenting Small Encodes with quality for years!\n                                                                                                   \n                                                                                                   \n\nFar.from.the.Madding.Crowd.2015.BRRip.480p.x264.AAC-VYTO\n\n\nGenre: Drama, Romance   &lt;a href=&quot;\nhttp://www.imdb.com/title/tt2935476/&quot; rel=&quot;nofollow&quot; target=&quot;_NEW&quot;&gt;\nhttp://www.imdb.com/title/tt2935476/&lt;/a&gt;\n\n\nGeneral\nFormat                         : MPEG-4\nFile size                      : 401 MiB\nDuration                       : 1h 58mn\nOverall bit rate               : 472 Kbps\n\nVideo\nFormat                         : AVC\nBit rate                       : 437 Kbps\nWidth                          : 720 pixels\nHeight                         : 304 pixels\nDisplay aspect ratio           : 2.35:1\nFrame rate mode                : Constant\nFrame rate                     : 23.976 fps\nBit depth                      : 8 bits\nStream size                    : 371 MiB (93%)\nWriting library                : x264 core 146 r2538 121396c\n\nAudio\nFormat                         : AAC\nBit rate mode                  : Variable\nBit rate                       : 32.0 Kbps\nChannel(s)                     : 2 channels\nChannel positions              : Front: L R\nSampling rate                  : 48.0 KHz \nStream size                    : 27.2 MiB (7%)\nLanguage                       : English\n\nSubtitle                       : N/a\nSource                         : RERIP.720p.BluRay.x264-GECKOS\n\n\nScreenshots:\n &lt;a href=&quot;\nhttp://ititli.com/rk&quot; rel=&quot;nofollow&quot; target=&quot;_NEW&quot;&gt;\nhttp://ititli.com/rk&lt;/a&gt; &lt;a href=&quot;\nhttp://ititli.com/ro&quot; rel=&quot;nofollow&quot; target=&quot;_NEW&quot;&gt;\nhttp://ititli.com/ro&lt;/a&gt; &lt;a href=&quot;\nhttp://ititli.com/rG&quot; rel=&quot;nofollow&quot; target=&quot;_NEW&quot;&gt;\nhttp://ititli.com/rG&lt;/a&gt; &lt;a href=&quot;\nhttp://ititli.com/rH&quot; rel=&quot;nofollow&quot; target=&quot;_NEW&quot;&gt;\nhttp://ititli.com/rH&lt;/a&gt; &lt;a href=&quot;\nhttp://ititli.com/rM&quot; rel=&quot;nofollow&quot; target=&quot;_NEW&quot;&gt;\nhttp://ititli.com/rM&lt;/a&gt; &lt;a href=&quot;\nhttp://ititli.com/rU&quot; rel=&quot;nofollow&quot; target=&quot;_NEW&quot;&gt;\nhttp://ititli.com/rU&lt;/a&gt; &lt;a href=&quot;\nhttp://ititli.com/rh&quot; rel=&quot;nofollow&quot; target=&quot;_NEW&quot;&gt;\nhttp://ititli.com/rh&lt;/a&gt; &lt;a href=&quot;\nhttp://ititli.com/rs&quot; rel=&quot;nofollow&quot; target=&quot;_NEW&quot;&gt;\nhttp://ititli.com/rs&lt;/a&gt; &lt;a href=&quot;\nhttp://ititli.com/rY&quot; rel=&quot;nofollow&quot; target=&quot;_NEW&quot;&gt;\nhttp://ititli.com/rY&lt;/a&gt; &lt;a href=&quot;\nhttp://ititli.com/r4&quot; rel=&quot;nofollow&quot; target=&quot;_NEW&quot;&gt;\nhttp://ititli.com/r4&lt;/a&gt; &lt;a href=&quot;\nhttp://ititli.com/rK&quot; rel=&quot;nofollow&quot; target=&quot;_NEW&quot;&gt;\nhttp://ititli.com/rK&lt;/a&gt; &lt;a href=&quot;\nhttp://ititli.com/rV&quot; rel=&quot;nofollow&quot; target=&quot;_NEW&quot;&gt;\nhttp://ititli.com/rV&lt;/a&gt;\n\n----------------------------------------------------------------------------------------------------\n\n\nEncoder Notes: Looking For Early Access To Anything You Can Provide DVDScr, R5, DVDR, BluRay, Direct\nAudio, Music Releases and Seedboxes. If You Got anything to offer please contact us.\n\nSupport us by donating BC - 1FgwdzPsd1y25Gea8wP1qni35uGCtmkRCD","torrent":{"xt":"urn:btih:d5751935be45bbc95494b8f5fb93da134f2c032c","amp;dn":"Far.from.the.Madding.Crowd.2015.BRRip.480p.x264.AAC-VYTO+%5BP2PDL%5D","amp;tr":["udp%3A%2F%2Ftracker.openbittorrent.com%3A80","udp%3A%2F%2Fopen.demonii.com%3A1337","udp%3A%2F%2Ftracker.coppersurfer.tk%3A6969","udp%3A%2F%2Fexodus.desync.com%3A6969"],"infoHash":"d5751935be45bbc95494b8f5fb93da134f2c032c","infoHashBuffer":{"type":"Buffer","data":[213,117,25,53,190,69,187,201,84,148,184,245,251,147,218,19,79,44,3,44]},"announce":[],"urlList":[]}}